<?xml version="1.0" encoding="UTF-8" standalone="no"?>
<svg width="100px" height="100px" viewBox="0 0 100 100" version="1.1" xmlns="http://www.w3.org/2000/svg" xmlns:xlink="http://www.w3.org/1999/xlink">
    <!-- Generator: Sketch 39.1 (31720) - http://www.bohemiancoding.com/sketch -->
    <title>100-UI-Baseline</title>
    <desc>Created with Sketch.</desc>
    <defs>
        <path d="M62.5,0 L40,0 L25,0 L0,0 L0,83.294 C7.356,87.551 15.89,90 25,90 L65,90 L65,2.5 C65,1.119 63.881,0 62.5,0" id="path-1"></path>
    </defs>
    <g id="latest-20160810" stroke="none" stroke-width="1" fill="none" fill-rule="evenodd">
        <g id="baseline" transform="translate(-760.000000, -90.000000)">
            <g id="content" transform="translate(270.000000, 90.000000)">
                <g id="Top-intro" transform="translate(280.000000, 0.000000)">
                    <g id="100-UI-Baseline" transform="translate(210.000000, 0.000000)">
                        <path d="M100,50 C100,77.614 77.614,100 50,100 C22.386,100 0,77.614 0,50 C0,22.386 22.386,0 50,0 C77.614,0 100,22.386 100,50" id="BG" fill="#EFF4F9"></path>
                        <g id="Document" transform="translate(10.000000, 10.000000)">
                            <path d="M77.5,0 L55,0 L40,0 L15,0 L15,83.294 C22.356,87.551 30.89,90 40,90 L80,90 L80,2.5 C80,1.119 78.881,0 77.5,0" id="Body" fill="#FFFFFF"></path>
                            <path d="M4.5,0 C3.119,0 2,1.119 2,2.5 L1,40 L1,50 L0,70.001 C4.041,75.38 9.149,79.908 15,83.294 L15,50 L15,40 L15,0 L4.5,0 Z" id="Shadow-1" fill="#EFF4F9"></path>
                            <path d="M2.5,0 C1.119,0 0,1.119 0,2.5 L0,40 L0,50 L0,70.001 C1.521,72.025 3.196,73.925 5,75.694 L5,50 L5,40 L5,0 L2.5,0 Z" id="Shadow-2" fill="#C3CFE2"></path>
                        </g>
                        <g id="Content" transform="translate(25.000000, 10.000000)">
                            <g id="Grid">
                                <mask id="mask-2" fill="white">
                                    <use xlink:href="#path-1"></use>
                                </mask>
                                <g id="Body"></g>
                                <path d="M11,79 L19,79 L19,71 L11,71 L11,79 Z M9,79 L-3.99842165,79 C-4.55728061,79 -5,79.4477153 -5,80 C-5,80.5561352 -4.5515781,81 -3.99842165,81 L9,81 L9,99.004651 C9,99.558204 9.44771525,100 10,100 C10.5561352,100 11,99.5543671 11,99.004651 L11,81 L19,81 L19,99.004651 C19,99.558204 19.4477153,100 20,100 C20.5561352,100 21,99.5543671 21,99.004651 L21,81 L29,81 L29,99.004651 C29,99.558204 29.4477153,100 30,100 C30.5561352,100 31,99.5543671 31,99.004651 L31,81 L39,81 L39,99.004651 C39,99.558204 39.4477153,100 40,100 C40.5561352,100 41,99.5543671 41,99.004651 L41,81 L48.9984217,81 C49.5572806,81 50,80.5522847 50,80 C50,79.4438648 49.5515781,79 48.9984217,79 L41,79 L41,71 L48.9984217,71 C49.5572806,71 50,70.5522847 50,70 C50,69.4438648 49.5515781,69 48.9984217,69 L41,69 L41,61 L48.9984217,61 C49.5572806,61 50,60.5522847 50,60 C50,59.4438648 49.5515781,59 48.9984217,59 L41,59 L41,51 L48.9984217,51 C49.5572806,51 50,50.5522847 50,50 C50,49.4438648 49.5515781,49 48.9984217,49 L41,49 L41,41 L48.9984217,41 C49.5572806,41 50,40.5522847 50,40 C50,39.4438648 49.5515781,39 48.9984217,39 L41,39 L41,31 L48.9984217,31 C49.5572806,31 50,30.5522847 50,30 C50,29.4438648 49.5515781,29 48.9984217,29 L41,29 L41,21 L48.9984217,21 C49.5572806,21 50,20.5522847 50,20 C50,19.4438648 49.5515781,19 48.9984217,19 L41,19 L41,10.995349 C41,10.441796 40.5522847,10 40,10 C39.4438648,10 39,10.4456329 39,10.995349 L39,19 L31,19 L31,10.995349 C31,10.441796 30.5522847,10 30,10 C29.4438648,10 29,10.4456329 29,10.995349 L29,19 L21,19 L21,10.995349 C21,10.441796 20.5522847,10 20,10 C19.4438648,10 19,10.4456329 19,10.995349 L19,19 L11,19 L11,10.995349 C11,10.441796 10.5522847,10 10,10 C9.44386482,10 9,10.4456329 9,10.995349 L9,19 L-3.99842165,19 C-4.55728061,19 -5,19.4477153 -5,20 C-5,20.5561352 -4.5515781,21 -3.99842165,21 L9,21 L9,29 L-3.99842165,29 C-4.55728061,29 -5,29.4477153 -5,30 C-5,30.5561352 -4.5515781,31 -3.99842165,31 L9,31 L9,39 L-3.99842165,39 C-4.55728061,39 -5,39.4477153 -5,40 C-5,40.5561352 -4.5515781,41 -3.99842165,41 L9,41 L9,49 L-3.99842165,49 C-4.55728061,49 -5,49.4477153 -5,50 C-5,50.5561352 -4.5515781,51 -3.99842165,51 L9,51 L9,59 L-3.99842165,59 C-4.55728061,59 -5,59.4477153 -5,60 C-5,60.5561352 -4.5515781,61 -3.99842165,61 L9,61 L9,69 L-3.99842165,69 C-4.55728061,69 -5,69.4477153 -5,70 C-5,70.5561352 -4.5515781,71 -3.99842165,71 L9,71 L9,79 Z M11,21 L19,21 L19,29 L11,29 L11,21 Z M11,31 L19,31 L19,39 L11,39 L11,31 Z M11,41 L19,41 L19,49 L11,49 L11,41 Z M11,51 L19,51 L19,59 L11,59 L11,51 Z M11,61 L19,61 L19,69 L11,69 L11,61 Z M21,79 L29,79 L29,71 L21,71 L21,79 Z M21,21 L29,21 L29,29 L21,29 L21,21 Z M21,31 L29,31 L29,39 L21,39 L21,31 Z M21,41 L29,41 L29,49 L21,49 L21,41 Z M21,51 L29,51 L29,59 L21,59 L21,51 Z M21,61 L29,61 L29,69 L21,69 L21,61 Z M31,79 L39,79 L39,71 L31,71 L31,79 Z M31,21 L39,21 L39,29 L31,29 L31,21 Z M31,31 L39,31 L39,39 L31,39 L31,31 Z M31,41 L39,41 L39,49 L31,49 L31,41 Z M31,51 L39,51 L39,59 L31,59 L31,51 Z M31,61 L39,61 L39,69 L31,69 L31,61 Z" fill="#EFF4F9" mask="url(#mask-2)"></path>
                            </g>
                            <g id="Button" transform="translate(10.000000, 70.000000)">
                                <rect id="BG-Button-Primary" fill="#0074C8" x="0" y="0" width="30" height="10" rx="1"></rect>
                                <rect id="Text-Button-Primary" fill="#FFFFFF" x="5" y="4" width="20" height="2" rx="1"></rect>
                            </g>
                            <rect id="Title" fill="#4F627F" x="10" y="19" width="30" height="2" rx="1"></rect>
                            <rect id="Price" fill="#4F627F" x="20" y="59" width="10" height="2" rx="1"></rect>
                            <path d="M0,48 C0,47.4477153 0.447525736,47 0.998768955,47 L49.001231,47 C49.5528359,47 50,47.4438648 50,48 C50,48.5522847 49.5524743,49 49.001231,49 L0.998768955,49 C0.447164093,49 0,48.5561352 0,48 Z M0,44 C0,43.4477153 0.44921875,43 1.00877516,43 L38.9912248,43 C39.548356,43 40,43.4438648 40,44 C40,44.5522847 39.5507812,45 38.9912248,45 L1.00877516,45 C0.451644023,45 0,44.5561352 0,44 Z M0,40 C0,39.4477153 0.44921875,39 1.00877516,39 L38.9912248,39 C39.548356,39 40,39.4438648 40,40 C40,40.5522847 39.5507812,41 38.9912248,41 L1.00877516,41 C0.451644023,41 0,40.5561352 0,40 Z M0,36 C0,35.4477153 0.447525736,35 0.998768955,35 L49.001231,35 C49.5528359,35 50,35.4438648 50,36 C50,36.5522847 49.5524743,37 49.001231,37 L0.998768955,37 C0.447164093,37 0,36.5561352 0,36 Z M0,32 C0,31.4477153 0.447525736,31 0.998768955,31 L49.001231,31 C49.5528359,31 50,31.4438648 50,32 C50,32.5522847 49.5524743,33 49.001231,33 L0.998768955,33 C0.447164093,33 0,32.5561352 0,32 Z" id="Lines-Text" fill="#C3CFE2"></path>
                        </g>
                    </g>
                </g>
            </g>
        </g>
    </g>
</svg>