<?xml version="1.0" encoding="UTF-8" standalone="no"?>
<svg width="100px" height="100px" viewBox="0 0 100 100" version="1.1" xmlns="http://www.w3.org/2000/svg" xmlns:xlink="http://www.w3.org/1999/xlink">
    <!-- Generator: Sketch 39.1 (31720) - http://www.bohemiancoding.com/sketch -->
    <title>100-UI-Input</title>
    <desc>Created with Sketch.</desc>
    <defs></defs>
    <g id="latest-20160810" stroke="none" stroke-width="1" fill="none" fill-rule="evenodd">
        <g id="input" transform="translate(-760.000000, -90.000000)">
            <g id="content" transform="translate(180.000000, 90.000000)">
                <g id="Top-intro" transform="translate(90.000000, 0.000000)">
                    <g id="100-UI-Input" transform="translate(490.000000, 0.000000)">
                        <path d="M100,50 C100,77.614 77.614,100 50,100 C22.386,100 0,77.614 0,50 C0,22.386 22.386,0 50,0 C77.614,0 100,22.386 100,50" id="BG" fill="#EFF4F9"></path>
                        <g id="Document" transform="translate(10.000000, 10.000000)">
                            <path d="M77.5,0 L55,0 L40,0 L15,0 L15,83.294 C22.356,87.551 30.89,90 40,90 L80,90 L80,2.5 C80,1.119 78.881,0 77.5,0" id="Body" fill="#FFFFFF"></path>
                            <path d="M4.5,0 C3.119,0 2,1.119 2,2.5 L1,40 L1,50 L0,70.001 C4.041,75.38 9.149,79.908 15,83.294 L15,50 L15,40 L15,0 L4.5,0 Z" id="Shadow-1" fill="#EFF4F9"></path>
                            <path d="M2.5,0 C1.119,0 0,1.119 0,2.5 L0,40 L0,50 L0,70.001 C1.521,72.025 3.196,73.925 5,75.694 L5,50 L5,40 L5,0 L2.5,0 Z" id="Shadow-2" fill="#C3CFE2"></path>
                        </g>
                        <rect id="Title" fill="#4F627F" x="35" y="30" width="30" height="2" rx="1"></rect>
                        <g id="Input" transform="translate(20.000000, 46.000000)">
                            <g id="Input-1" transform="translate(5.000000, 0.000000)">
                                <rect id="Label" fill="#C3CFE2" x="10" y="0" width="20" height="2" rx="1"></rect>
                                <rect id="Icon" fill="#F79839" x="2" y="0" width="6" height="6" rx="3"></rect>
                                <rect id="Input" fill="#4F627F" x="10" y="4" width="25" height="2" rx="1"></rect>
                                <rect id="Line" fill="#F79839" x="0" y="8" width="50" height="2" rx="1"></rect>
                            </g>
                            <g id="Input-2" transform="translate(0.000000, 12.000000)">
                                <rect id="Label" fill="#C3CFE2" x="15" y="2" width="15" height="2" rx="1"></rect>
                                <rect id="Icon" fill="#C3CFE2" x="7" y="0" width="6" height="6" rx="3"></rect>
                                <rect id="Line" fill="#EFF4F9" x="0" y="8" width="55" height="2" rx="1"></rect>
                            </g>
                            <g id="Input-3" transform="translate(0.000000, 24.000000)">
                                <rect id="Label" fill="#C3CFE2" x="15" y="2" width="20" height="2" rx="1"></rect>
                                <rect id="Icon" fill="#C3CFE2" x="7" y="0" width="6" height="6" rx="3"></rect>
                                <rect id="Line" fill="#EFF4F9" x="0" y="8" width="55" height="2" rx="1"></rect>
                            </g>
                        </g>
                        <circle id="Color-1" fill="#F79839" cx="90" cy="15" r="10"></circle>
                    </g>
                </g>
            </g>
        </g>
    </g>
</svg>