<?xml version="1.0" encoding="UTF-8" standalone="no"?>
<svg width="100px" height="100px" viewBox="0 0 100 100" version="1.1" xmlns="http://www.w3.org/2000/svg" xmlns:xlink="http://www.w3.org/1999/xlink">
    <!-- Generator: Sketch 39.1 (31720) - http://www.bohemiancoding.com/sketch -->
    <title>100-UI-Label</title>
    <desc>Created with Sketch.</desc>
    <defs></defs>
    <g id="latest-20160810" stroke="none" stroke-width="1" fill="none" fill-rule="evenodd">
        <g id="label" transform="translate(-760.000000, -90.000000)">
            <g id="content" transform="translate(180.000000, 90.000000)">
                <g id="Top-intro" transform="translate(90.000000, 0.000000)">
                    <g id="100-UI-Label" transform="translate(490.000000, 0.000000)">
                        <path d="M100,50 C100,77.614 77.614,100 50,100 C22.386,100 0,77.614 0,50 C0,22.386 22.386,0 50,0 C77.614,0 100,22.386 100,50" id="BG" fill="#EFF4F9"></path>
                        <g id="Document" transform="translate(10.000000, 10.000000)">
                            <path d="M77.5,0 L55,0 L40,0 L15,0 L15,83.294 C22.356,87.551 30.89,90 40,90 L80,90 L80,2.5 C80,1.119 78.881,0 77.5,0" id="Body" fill="#FFFFFF"></path>
                            <path d="M4.5,0 C3.119,0 2,1.119 2,2.5 L1,40 L1,50 L0,70.001 C4.041,75.38 9.149,79.908 15,83.294 L15,50 L15,40 L15,0 L4.5,0 Z" id="Shadow-1" fill="#EFF4F9"></path>
                            <path d="M2.5,0 C1.119,0 0,1.119 0,2.5 L0,40 L0,50 L0,70.001 C1.521,72.025 3.196,73.925 5,75.694 L5,50 L5,40 L5,0 L2.5,0 Z" id="Shadow-2" fill="#C3CFE2"></path>
                        </g>
                        <rect id="Title" fill="#4F627F" x="35" y="30" width="30" height="2" rx="1"></rect>
                        <rect id="Subtitle" fill="#C3CFE2" x="30" y="34" width="40" height="2" rx="1"></rect>
                        <path d="M25,79 C25,78.4477153 25.4475257,78 25.998769,78 L74.001231,78 C74.5528359,78 75,78.4438648 75,79 C75,79.5522847 74.5524743,80 74.001231,80 L25.998769,80 C25.4471641,80 25,79.5561352 25,79 Z M25,75 C25,74.4477153 25.4475257,74 25.998769,74 L74.001231,74 C74.5528359,74 75,74.4438648 75,75 C75,75.5522847 74.5524743,76 74.001231,76 L25.998769,76 C25.4471641,76 25,75.5561352 25,75 Z M25,68 C25,67.4477153 25.4473652,67 25.9981537,67 L54.0018463,67 C54.5531114,67 55,67.4438648 55,68 C55,68.5522847 54.5526348,69 54.0018463,69 L25.9981537,69 C25.4468886,69 25,68.5561352 25,68 Z M25,64 C25,63.4477153 25.4475257,63 25.998769,63 L74.001231,63 C74.5528359,63 75,63.4438648 75,64 C75,64.5522847 74.5524743,65 74.001231,65 L25.998769,65 C25.4471641,65 25,64.5561352 25,64 Z M25,60 C25,59.4477153 25.4475257,59 25.998769,59 L74.001231,59 C74.5528359,59 75,59.4438648 75,60 C75,60.5522847 74.5524743,61 74.001231,61 L25.998769,61 C25.4471641,61 25,60.5561352 25,60 Z M25,56 C25,55.4477153 25.4475257,55 25.998769,55 L74.001231,55 C74.5528359,55 75,55.4438648 75,56 C75,56.5522847 74.5524743,57 74.001231,57 L25.998769,57 C25.4471641,57 25,56.5561352 25,56 Z M25,52 C25,51.4477153 25.4475257,51 25.998769,51 L74.001231,51 C74.5528359,51 75,51.4438648 75,52 C75,52.5522847 74.5524743,53 74.001231,53 L25.998769,53 C25.4471641,53 25,52.5561352 25,52 Z M25,48 C25,47.4477153 25.4475257,47 25.998769,47 L74.001231,47 C74.5528359,47 75,47.4438648 75,48 C75,48.5522847 74.5524743,49 74.001231,49 L25.998769,49 C25.4471641,49 25,48.5561352 25,48 Z" id="Lines-Text" fill="#C3CFE2"></path>
                        <rect id="Rectangle-86-Copy" fill="#990046" x="57" y="67" width="8" height="2" rx="1"></rect>
                        <circle id="Color-1" fill="#990046" cx="90" cy="15" r="10"></circle>
                    </g>
                </g>
            </g>
        </g>
    </g>
</svg>