<?xml version="1.0" encoding="UTF-8" standalone="no"?>
<svg width="100px" height="100px" viewBox="0 0 100 100" version="1.1" xmlns="http://www.w3.org/2000/svg" xmlns:xlink="http://www.w3.org/1999/xlink">
    <!-- Generator: Sketch 39.1 (31720) - http://www.bohemiancoding.com/sketch -->
    <title>100-UI-Loader</title>
    <desc>Created with Sketch.</desc>
    <defs></defs>
    <g id="latest-20160810" stroke="none" stroke-width="1" fill="none" fill-rule="evenodd">
        <g id="loader" transform="translate(-760.000000, -90.000000)">
            <g id="content" transform="translate(180.000000, 90.000000)">
                <g id="Top-intro" transform="translate(370.000000, 0.000000)">
                    <g id="100-UI-Loader" transform="translate(210.000000, 0.000000)">
                        <path d="M100,50 C100,77.614 77.614,100 50,100 C22.386,100 0,77.614 0,50 C0,22.386 22.386,0 50,0 C77.614,0 100,22.386 100,50" id="BG" fill="#EFF4F9"></path>
                        <g id="Document" transform="translate(10.000000, 10.000000)">
                            <path d="M77.5,0 L55,0 L40,0 L15,0 L15,83.294 C22.356,87.551 30.89,90 40,90 L80,90 L80,2.5 C80,1.119 78.881,0 77.5,0" id="Body" fill="#FFFFFF"></path>
                            <path d="M4.5,0 C3.119,0 2,1.119 2,2.5 L1,40 L1,50 L0,70.001 C4.041,75.38 9.149,79.908 15,83.294 L15,50 L15,40 L15,0 L4.5,0 Z" id="Shadow-1" fill="#EFF4F9"></path>
                            <path d="M2.5,0 C1.119,0 0,1.119 0,2.5 L0,40 L0,50 L0,70.001 C1.521,72.025 3.196,73.925 5,75.694 L5,50 L5,40 L5,0 L2.5,0 Z" id="Shadow-2" fill="#C3CFE2"></path>
                        </g>
                        <g id="Loader" transform="translate(40.000000, 40.000000)">
                            <path d="M10,15 C7.239,15 5,12.761 5,10 C5,7.239 7.239,5 10,5 C12.761,5 15,7.239 15,10 C15,12.761 12.761,15 10,15 M10,0 C4.477,0 0,4.477 0,10 C0,15.523 4.477,20 10,20 C15.523,20 20,15.523 20,10 C20,4.477 15.523,0 10,0" id="BG" fill="#EFF4F9"></path>
                            <path d="M10,20 C4.486,20 0,15.514 0,10 C0,4.486 4.486,0 10,0 C11.381,0 12.5,1.119 12.5,2.5 C12.5,3.881 11.381,5 10,5 C7.243,5 5,7.243 5,10 C5,12.757 7.243,15 10,15 C12.757,15 15,12.757 15,10 C15,8.619 16.119,7.5 17.5,7.5 C18.881,7.5 20,8.619 20,10 C20,15.514 15.514,20 10,20" id="5" fill="#88DDFF"></path>
                            <path d="M10,20 C4.486,20 0,15.514 0,10 C0,4.486 4.486,0 10,0 C11.381,0 12.5,1.119 12.5,2.5 C12.5,3.881 11.381,5 10,5 C7.243,5 5,7.243 5,10 C5,12.757 7.243,15 10,15 C11.673,15 13.229,14.167 14.161,12.771 C14.929,11.623 16.482,11.313 17.629,12.082 C18.777,12.849 19.086,14.401 18.318,15.55 C16.456,18.336 13.346,20 10,20" id="4" fill="#43ACED"></path>
                            <path d="M10,20 C4.486,20 0,15.514 0,10 C0,4.486 4.486,0 10,0 C11.381,0 12.5,1.119 12.5,2.5 C12.5,3.881 11.381,5 10,5 C7.243,5 5,7.243 5,10 C5,12.757 7.243,15 10,15 C11.381,15 12.5,16.119 12.5,17.5 C12.5,18.881 11.381,20 10,20" id="3" fill="#0074C8"></path>
                            <path d="M2.5,12.5 C1.119,12.5 0,11.381 0,10 C0,4.486 4.486,0 10,0 C11.381,0 12.5,1.119 12.5,2.5 C12.5,3.881 11.381,5 10,5 C7.243,5 5,7.243 5,10 C5,11.381 3.881,12.5 2.5,12.5" id="2" fill="#1E5399"></path>
                            <circle id="1" fill="#233E66" cx="10" cy="2.5" r="2.5"></circle>
                        </g>
                        <g id="3-dots" transform="translate(45.000000, 68.000000)">
                            <path d="M1,0 C0.448,0 0,0.448 0,1 C0,1.552 0.448,2 1,2 C1.552,2 2,1.552 2,1 C2,0.448 1.552,0 1,0" id="1" fill="#4F627F"></path>
                            <path d="M5,0 C4.448,0 4,0.448 4,1 C4,1.552 4.448,2 5,2 C5.552,2 6,1.552 6,1 C6,0.448 5.552,0 5,0" id="2" fill="#8BA1BC"></path>
                            <path d="M9,0 C8.448,0 8,0.448 8,1 C8,1.552 8.448,2 9,2 C9.552,2 10,1.552 10,1 C10,0.448 9.552,0 9,0" id="3" fill="#C3CFE2"></path>
                        </g>
                        <circle id="Color-1" fill="#0074C8" cx="90" cy="15" r="10"></circle>
                    </g>
                </g>
            </g>
        </g>
    </g>
</svg>