<?xml version="1.0" encoding="UTF-8" standalone="no"?>
<svg width="100px" height="100px" viewBox="0 0 100 100" version="1.1" xmlns="http://www.w3.org/2000/svg" xmlns:xlink="http://www.w3.org/1999/xlink">
    <!-- Generator: Sketch 39.1 (31720) - http://www.bohemiancoding.com/sketch -->
    <title>100-UI-Preview</title>
    <desc>Created with Sketch.</desc>
    <defs></defs>
    <g id="latest-20160810" stroke="none" stroke-width="1" fill="none" fill-rule="evenodd">
        <g id="preview" transform="translate(-760.000000, -90.000000)">
            <g id="content" transform="translate(180.000000, 90.000000)">
                <g id="Top-intro" transform="translate(90.000000, 0.000000)">
                    <g id="100-UI-Preview" transform="translate(490.000000, 0.000000)">
                        <path d="M100,50 C100,77.614 77.614,100 50,100 C22.386,100 0,77.614 0,50 C0,22.386 22.386,0 50,0 C77.614,0 100,22.386 100,50" id="BG" fill="#EFF4F9"></path>
                        <g id="Document" transform="translate(10.000000, 10.000000)">
                            <path d="M77.5,0 L55,0 L40,0 L15,0 L15,83.294 C22.356,87.551 30.89,90 40,90 L80,90 L80,2.5 C80,1.119 78.881,0 77.5,0" id="Body" fill="#FFFFFF"></path>
                            <path d="M4.5,0 C3.119,0 2,1.119 2,2.5 L1,40 L1,50 L0,70.001 C4.041,75.38 9.149,79.908 15,83.294 L15,50 L15,40 L15,0 L4.5,0 Z" id="Shadow-1" fill="#EFF4F9"></path>
                            <path d="M2.5,0 C1.119,0 0,1.119 0,2.5 L0,40 L0,50 L0,70.001 C1.521,72.025 3.196,73.925 5,75.694 L5,50 L5,40 L5,0 L2.5,0 Z" id="Shadow-2" fill="#C3CFE2"></path>
                        </g>
                        <path d="M75,79 L75,73.5093004 C75,72.1123657 73.8822276,71 72.5033855,71 L27.4966145,71 C26.1144248,71 25,72.123452 25,73.5093004 L25,79 C25,79.5522847 25.4477153,80 26,80 C26.5522847,80 27,79.5522847 27,79 L27,74.0029293 C27,73.4490268 27.4552782,73 28.0035552,73 L71.9964448,73 C72.550693,73 73,73.4378814 73,74.0029293 L73,79 C73,79.5522847 73.4477153,80 74,80 C74.5522847,80 75,79.5522847 75,79 Z" id="Border" fill="#EFF4F9"></path>
                        <g id="Preview" transform="translate(25.000000, 42.000000)">
                            <path d="M36,24 L14,24 C14.5522847,24 15,23.5522847 15,23 C15,22.4477153 14.5522847,22 14,22 L36,22 C35.4477153,22 35,22.4477153 35,23 C35,23.5522847 35.4477153,24 36,24 Z M0,2.50050165 C0,1.11951272 1.11442478,0 2.49661453,0 L47.5033855,0 C48.8822276,0 50,1.12537944 50,2.50050165 L50,21.4994984 C50,22.8804873 48.8855752,24 47.5033855,24 L2.49661453,24 C1.1177724,24 0,22.8746206 0,21.4994984 L0,2.50050165 Z M2,2.99180311 C2,2.44404538 2.45527816,2 3.00355521,2 L46.9964448,2 C47.550693,2 48,2.45530558 48,2.99180311 L48,21.0081969 C48,21.5559546 47.5447218,22 46.9964448,22 L3.00355521,22 C2.44930697,22 2,21.5446944 2,21.0081969 L2,2.99180311 Z" id="Border" fill="#EFF4F9"></path>
                            <rect id="Text-1" fill="#4F627F" x="4" y="7" width="20" height="2" rx="1"></rect>
                            <rect id="Text-1-Copy" fill="#B9B9EA" x="20" y="22" width="10" height="2" rx="1"></rect>
                            <rect id="Text-2" fill="#4F627F" x="4" y="11" width="35" height="2" rx="1"></rect>
                            <rect id="Text-3" fill="#4F627F" x="4" y="15" width="35" height="2" rx="1"></rect>
                        </g>
                        <rect id="Title" fill="#4F627F" x="25" y="30" width="15" height="2" rx="1"></rect>
                        <rect id="Subtitle" fill="#C3CFE2" x="25" y="34" width="40" height="2" rx="1"></rect>
                        <circle id="Color-1" fill="#B9B9EA" cx="90" cy="15" r="10"></circle>
                    </g>
                </g>
            </g>
        </g>
    </g>
</svg>