<?xml version="1.0" encoding="UTF-8" standalone="no"?>
<svg width="100px" height="100px" viewBox="0 0 100 100" version="1.1" xmlns="http://www.w3.org/2000/svg" xmlns:xlink="http://www.w3.org/1999/xlink">
    <!-- Generator: Sketch 39.1 (31720) - http://www.bohemiancoding.com/sketch -->
    <title>100-UI-Selector</title>
    <desc>Created with Sketch.</desc>
    <defs></defs>
    <g id="latest-20160810" stroke="none" stroke-width="1" fill="none" fill-rule="evenodd">
        <g id="selector" transform="translate(-760.000000, -90.000000)">
            <g id="content" transform="translate(180.000000, 90.000000)">
                <g id="Top-intro" transform="translate(370.000000, 0.000000)">
                    <g id="100-UI-Selector" transform="translate(210.000000, 0.000000)">
                        <path d="M100,50 C100,77.614 77.614,100 50,100 C22.386,100 0,77.614 0,50 C0,22.386 22.386,0 50,0 C77.614,0 100,22.386 100,50" id="BG" fill="#EFF4F9"></path>
                        <g id="Document" transform="translate(10.000000, 10.000000)">
                            <path d="M77.5,0 L55,0 L40,0 L15,0 L15,83.294 C22.356,87.551 30.89,90 40,90 L80,90 L80,2.5 C80,1.119 78.881,0 77.5,0" id="Body" fill="#FFFFFF"></path>
                            <path d="M4.5,0 C3.119,0 2,1.119 2,2.5 L1,40 L1,50 L0,70.001 C4.041,75.38 9.149,79.908 15,83.294 L15,50 L15,40 L15,0 L4.5,0 Z" id="Shadow-1" fill="#EFF4F9"></path>
                            <path d="M2.5,0 C1.119,0 0,1.119 0,2.5 L0,40 L0,50 L0,70.001 C1.521,72.025 3.196,73.925 5,75.694 L5,50 L5,40 L5,0 L2.5,0 Z" id="Shadow-2" fill="#C3CFE2"></path>
                        </g>
                        <rect id="Title" fill="#4F627F" x="35" y="30" width="30" height="2" rx="1"></rect>
                        <g id="Input" transform="translate(20.000000, 42.000000)">
                            <g id="Selector-1" transform="translate(5.000000, 0.000000)">
                                <rect id="Title" fill="#4F627F" x="2" y="4" width="20" height="2" rx="1"></rect>
                                <path d="M46,10 C45.744,10 45.488,9.902 45.293,9.707 C44.902,9.316 44.902,8.684 45.293,8.293 L46.586,7 L45.293,5.707 C44.902,5.316 44.902,4.684 45.293,4.293 C45.684,3.902 46.316,3.902 46.707,4.293 L49.414,7 L46.707,9.707 C46.512,9.902 46.256,10 46,10" id="Arrow" fill="#4F627F"></path>
                                <rect id="Description" fill="#C3CFE2" x="2" y="8" width="25" height="2" rx="1"></rect>
                                <rect id="Line-2" fill="#70E0E0" x="0" y="12" width="50" height="2" rx="1"></rect>
                                <rect id="Line-1" fill="#70E0E0" x="0" y="0" width="50" height="2" rx="1"></rect>
                            </g>
                            <g id="Selector-2" transform="translate(0.000000, 16.000000)">
                                <rect id="Description" fill="#C3CFE2" x="7" y="4" width="15" height="2" rx="1"></rect>
                                <rect id="Title" fill="#4F627F" x="7" y="0" width="20" height="2" rx="1"></rect>
                                <rect id="Line" fill="#EFF4F9" x="0" y="8" width="55" height="2" rx="1"></rect>
                                <path d="M51,6 C50.744,6 50.488,5.902 50.293,5.707 C49.902,5.316 49.902,4.684 50.293,4.293 L51.586,3 L50.293,1.707 C49.902,1.316 49.902,0.684 50.293,0.293 C50.684,-0.098 51.316,-0.098 51.707,0.293 L54.414,3 L51.707,5.707 C51.512,5.902 51.256,6 51,6" id="Arrow" fill="#4F627F"></path>
                            </g>
                            <g id="Selector-3" transform="translate(0.000000, 28.000000)">
                                <rect id="Line" fill="#EFF4F9" x="0" y="8" width="55" height="2" rx="1"></rect>
                                <path d="M51,6 C50.744,6 50.488,5.902 50.293,5.707 C49.902,5.316 49.902,4.684 50.293,4.293 L51.586,3 L50.293,1.707 C49.902,1.316 49.902,0.684 50.293,0.293 C50.684,-0.098 51.316,-0.098 51.707,0.293 L54.414,3 L51.707,5.707 C51.512,5.902 51.256,6 51,6" id="Arrow" fill="#4F627F"></path>
                                <rect id="Description" fill="#C3CFE2" x="7" y="4" width="15" height="2" rx="1"></rect>
                                <rect id="Title" fill="#4F627F" x="7" y="0" width="20" height="2" rx="1"></rect>
                            </g>
                        </g>
                        <circle id="Color-1" fill="#70E0E0" cx="90" cy="15" r="10"></circle>
                    </g>
                </g>
            </g>
        </g>
    </g>
</svg>